<?xml version="1.0" encoding="UTF-8" standalone="no"?>
<!DOCTYPE svg PUBLIC "-//W3C//DTD SVG 1.1//EN"
 "http://www.w3.org/Graphics/SVG/1.1/DTD/svg11.dtd">
<!-- Generated by graphviz version 2.40.1 (20161225.0304)
 -->
<!-- Title: Workflow Pages: 1 -->
<svg width="448pt" height="896pt"
 viewBox="0.00 0.00 448.17 896.00" xmlns="http://www.w3.org/2000/svg" xmlns:xlink="http://www.w3.org/1999/xlink">
<g id="graph0" class="graph" transform="scale(1 1) rotate(0) translate(4 892)">
<title>Workflow</title>
<polygon fill="#ffffff" stroke="transparent" points="-4,4 -4,-892 444.165,-892 444.165,4 -4,4"/>
<text text-anchor="middle" x="220.0825" y="-869.6" font-family="Courier,monospace" font-size="18.00" fill="#000000">Alternative_Clean_Dish</text>
<g id="clust1" class="cluster">
<title>cluster_workflow_box_outer</title>
<polygon fill="none" stroke="#000000" stroke-width="2" points="8,-84 8,-778 334,-778 334,-84 8,-84"/>
</g>
<g id="clust2" class="cluster">
<title>cluster_workflow_box_inner</title>
<polygon fill="none" stroke="#ffffff" stroke-width="2" points="16,-92 16,-770 326,-770 326,-92 16,-92"/>
</g>
<g id="clust3" class="cluster">
<title>cluster_input_ports_group_outer</title>
<polygon fill="none" stroke="#ffffff" points="273,-808 273,-854 351,-854 351,-808 273,-808"/>
</g>
<g id="clust4" class="cluster">
<title>cluster_input_ports_group_inner</title>
<polygon fill="none" stroke="#ffffff" points="281,-816 281,-846 343,-846 343,-816 281,-816"/>
</g>
<g id="clust5" class="cluster">
<title>cluster_output_ports_group_outer</title>
<polygon fill="none" stroke="#ffffff" points="209,-8 209,-54 255,-54 255,-8 209,-8"/>
</g>
<g id="clust6" class="cluster">
<title>cluster_output_ports_group_inner</title>
<polygon fill="none" stroke="#ffffff" points="217,-16 217,-46 247,-46 247,-16 217,-16"/>
</g>
<!-- get_non_english_unigram -->
<g id="node1" class="node">
<title>get_non_english_unigram</title>
<polygon fill="#ccffcc" stroke="#000000" points="263.7316,-762 54.2684,-762 54.2684,-726 263.7316,-726 263.7316,-762"/>
<text text-anchor="middle" x="159" y="-739.8" font-family="Courier,monospace" font-size="14.00" fill="#000000">get_non_english_unigram</text>
</g>
<!-- google_translate -->
<g id="node2" class="node">
<title>google_translate</title>
<polygon fill="#ccffcc" stroke="#000000" points="225.4225,-549 74.5775,-549 74.5775,-513 225.4225,-513 225.4225,-549"/>
<text text-anchor="middle" x="150" y="-526.8" font-family="Courier,monospace" font-size="14.00" fill="#000000">google_translate</text>
</g>
<!-- get_non_english_unigram&#45;&gt;google_translate -->
<g id="edge1" class="edge">
<title>get_non_english_unigram&#45;&gt;google_translate</title>
<path fill="none" stroke="#000000" d="M155.5,-725.5733C153.75,-714.806 152,-700.931 152,-688.5 152,-688.5 152,-688.5 152,-599.5 152,-586.2492 151.6214,-571.5628 151.1937,-559.1979"/>
<polygon fill="#000000" stroke="#000000" points="154.6846,-558.8862 150.8135,-549.0239 147.6895,-559.1477 154.6846,-558.8862"/>
<text text-anchor="middle" x="208.4341" y="-639.8" font-family="Helvetica,sans-Serif" font-size="14.00" fill="#000000">non_eng_unigram</text>
</g>
<!-- put_together_translated_dish_name -->
<g id="node3" class="node">
<title>put_together_translated_dish_name</title>
<polygon fill="#ccffcc" stroke="#000000" points="317.7452,-336 24.2548,-336 24.2548,-300 317.7452,-300 317.7452,-336"/>
<text text-anchor="middle" x="171" y="-313.8" font-family="Courier,monospace" font-size="14.00" fill="#000000">put_together_translated_dish_name</text>
</g>
<!-- google_translate&#45;&gt;put_together_translated_dish_name -->
<g id="edge2" class="edge">
<title>google_translate&#45;&gt;put_together_translated_dish_name</title>
<path fill="none" stroke="#000000" d="M149,-512.506C148.5,-501.7163 148,-487.8413 148,-475.5 148,-475.5 148,-475.5 148,-373.5 148,-363.9516 150.9413,-354.1349 154.7202,-345.4629"/>
<polygon fill="#000000" stroke="#000000" points="157.9844,-346.7548 159.2305,-336.2335 151.6952,-343.6813 157.9844,-346.7548"/>
<text text-anchor="middle" x="207.9238" y="-413.8" font-family="Helvetica,sans-Serif" font-size="14.00" fill="#000000">translated_unigram</text>
</g>
<!-- export -->
<g id="node4" class="node">
<title>export</title>
<polygon fill="#ccffcc" stroke="#000000" points="265.4095,-136 198.5905,-136 198.5905,-100 265.4095,-100 265.4095,-136"/>
<text text-anchor="middle" x="232" y="-113.8" font-family="Courier,monospace" font-size="14.00" fill="#000000">export</text>
</g>
<!-- put_together_translated_dish_name&#45;&gt;export -->
<g id="edge3" class="edge">
<title>put_together_translated_dish_name&#45;&gt;export</title>
<path fill="none" stroke="#000000" d="M173,-299.524C174,-288.7403 175,-274.8653 175,-262.5 175,-262.5 175,-262.5 175,-173.5 175,-161.3067 181.7785,-150.923 190.6603,-142.5508"/>
<polygon fill="#000000" stroke="#000000" points="193.0791,-145.0909 198.5132,-135.9958 188.5933,-139.7171 193.0791,-145.0909"/>
<text text-anchor="middle" x="243.8789" y="-213.8" font-family="Helvetica,sans-Serif" font-size="14.00" fill="#000000">translated_dish_name</text>
</g>
<!-- alternate_clean_Dish.tsv_output_port -->
<g id="node7" class="node">
<title>alternate_clean_Dish.tsv_output_port</title>
<ellipse fill="#ffffff" stroke="#000000" cx="232" cy="-31" rx="7" ry="7"/>
</g>
<!-- export&#45;&gt;alternate_clean_Dish.tsv_output_port -->
<g id="edge7" class="edge">
<title>export&#45;&gt;alternate_clean_Dish.tsv_output_port</title>
<path fill="none" stroke="#000000" d="M232,-99.9735C232,-84.8929 232,-63.5054 232,-48.5575"/>
<polygon fill="#000000" stroke="#000000" points="235.5001,-48.1936 232,-38.1936 228.5001,-48.1936 235.5001,-48.1936"/>
<text text-anchor="middle" x="308.6548" y="-64.8" font-family="Helvetica,sans-Serif" font-size="14.00" fill="#000000">alternate_clean_Dish.tsv</text>
</g>
<!-- name_input_port -->
<g id="node5" class="node">
<title>name_input_port</title>
<ellipse fill="#ffffff" stroke="#000000" cx="296" cy="-831" rx="7" ry="7"/>
</g>
<!-- name_input_port&#45;&gt;get_non_english_unigram -->
<g id="edge4" class="edge">
<title>name_input_port&#45;&gt;get_non_english_unigram</title>
<path fill="none" stroke="#000000" d="M289.959,-827.1878C280.7023,-821.3444 262.4542,-809.8179 246.9795,-800 230.3652,-789.4591 212.0025,-777.7762 196.3698,-767.8204"/>
<polygon fill="#000000" stroke="#000000" points="197.8293,-764.6004 187.5147,-762.1798 194.0685,-770.5043 197.8293,-764.6004"/>
<text text-anchor="middle" x="263.5103" y="-788.8" font-family="Helvetica,sans-Serif" font-size="14.00" fill="#000000">name</text>
</g>
<!-- name_input_port&#45;&gt;put_together_translated_dish_name -->
<g id="edge5" class="edge">
<title>name_input_port&#45;&gt;put_together_translated_dish_name</title>
<path fill="none" stroke="#000000" d="M296,-823.7816C296,-808.8748 296,-773.6042 296,-744 296,-744 296,-744 296,-373.5 296,-360.7059 273.8491,-348.8484 248.1966,-339.4062"/>
<polygon fill="#000000" stroke="#000000" points="249.2167,-336.0548 238.6218,-336.0395 246.8946,-342.6585 249.2167,-336.0548"/>
<text text-anchor="middle" x="313.5103" y="-569.8" font-family="Helvetica,sans-Serif" font-size="14.00" fill="#000000">name</text>
</g>
<!-- pass_thru_cols_input_port -->
<g id="node6" class="node">
<title>pass_thru_cols_input_port</title>
<ellipse fill="#ffffff" stroke="#000000" cx="328" cy="-831" rx="7" ry="7"/>
</g>
<!-- pass_thru_cols_input_port&#45;&gt;export -->
<g id="edge6" class="edge">
<title>pass_thru_cols_input_port&#45;&gt;export</title>
<path fill="none" stroke="#000000" d="M330.3532,-824.3291C335.2323,-809.8822 346,-774.5396 346,-744 346,-744 346,-744 346,-173.5 346,-157.0921 307.3408,-140.9731 275.0477,-130.3707"/>
<polygon fill="#000000" stroke="#000000" points="275.8705,-126.9597 265.28,-127.2632 273.7483,-133.6302 275.8705,-126.9597"/>
<text text-anchor="middle" x="393.0825" y="-445.8" font-family="Helvetica,sans-Serif" font-size="14.00" fill="#000000">pass_thru_cols</text>
</g>
</g>
</svg>
