<?xml version="1.0" encoding="UTF-8" standalone="no"?>
<!DOCTYPE svg PUBLIC "-//W3C//DTD SVG 1.1//EN"
 "http://www.w3.org/Graphics/SVG/1.1/DTD/svg11.dtd">
<!-- Generated by graphviz version 2.40.1 (20161225.0304)
 -->
<!-- Title: Workflow Pages: 1 -->
<svg width="1274pt" height="696pt"
 viewBox="0.00 0.00 1274.17 696.00" xmlns="http://www.w3.org/2000/svg" xmlns:xlink="http://www.w3.org/1999/xlink">
<g id="graph0" class="graph" transform="scale(1 1) rotate(0) translate(4 692)">
<title>Workflow</title>
<polygon fill="#ffffff" stroke="transparent" points="-4,4 -4,-692 1270.165,-692 1270.165,4 -4,4"/>
<text text-anchor="middle" x="633.0825" y="-669.6" font-family="Courier,monospace" font-size="18.00" fill="#000000">OpenRefine_Menu</text>
<g id="clust1" class="cluster">
<title>cluster_workflow_box_outer</title>
<polygon fill="none" stroke="#000000" stroke-width="2" points="8,-84 8,-578 1160,-578 1160,-84 8,-84"/>
</g>
<g id="clust2" class="cluster">
<title>cluster_workflow_box_inner</title>
<polygon fill="none" stroke="#ffffff" stroke-width="2" points="16,-92 16,-570 1152,-570 1152,-92 16,-92"/>
</g>
<g id="clust3" class="cluster">
<title>cluster_input_ports_group_outer</title>
<polygon fill="none" stroke="#ffffff" points="407,-608 407,-654 773,-654 773,-608 407,-608"/>
</g>
<g id="clust4" class="cluster">
<title>cluster_input_ports_group_inner</title>
<polygon fill="none" stroke="#ffffff" points="415,-616 415,-646 765,-646 765,-616 415,-616"/>
</g>
<g id="clust5" class="cluster">
<title>cluster_output_ports_group_outer</title>
<polygon fill="none" stroke="#ffffff" points="546,-8 546,-54 592,-54 592,-8 546,-8"/>
</g>
<g id="clust6" class="cluster">
<title>cluster_output_ports_group_inner</title>
<polygon fill="none" stroke="#ffffff" points="554,-16 554,-46 584,-46 584,-16 554,-16"/>
</g>
<!-- remove_special_characters -->
<g id="node1" class="node">
<title>remove_special_characters</title>
<polygon fill="#ccffcc" stroke="#000000" points="489.0342,-562 262.9658,-562 262.9658,-526 489.0342,-526 489.0342,-562"/>
<text text-anchor="middle" x="376" y="-539.8" font-family="Courier,monospace" font-size="14.00" fill="#000000">remove_special_characters</text>
</g>
<!-- cluster_keycollison_fingerprint -->
<g id="node2" class="node">
<title>cluster_keycollison_fingerprint</title>
<polygon fill="#ccffcc" stroke="#000000" points="564.4427,-336 287.5573,-336 287.5573,-300 564.4427,-300 564.4427,-336"/>
<text text-anchor="middle" x="426" y="-313.8" font-family="Courier,monospace" font-size="14.00" fill="#000000">cluster_keycollison_fingerprint</text>
</g>
<!-- remove_special_characters&#45;&gt;cluster_keycollison_fingerprint -->
<g id="edge1" class="edge">
<title>remove_special_characters&#45;&gt;cluster_keycollison_fingerprint</title>
<path fill="none" stroke="#000000" d="M262.8668,-535.1789C207.6664,-527.6365 153,-513.7843 153,-488.5 153,-488.5 153,-488.5 153,-386.5 153,-357.1044 213.2992,-340.2091 277.2193,-330.5573"/>
<polygon fill="#000000" stroke="#000000" points="278.1049,-333.9657 287.5006,-329.0697 277.1024,-327.0379 278.1049,-333.9657"/>
<text text-anchor="middle" x="180.2412" y="-426.8" font-family="Helvetica,sans-Serif" font-size="14.00" fill="#000000">name_t1</text>
</g>
<!-- remove_special_characters&#45;&gt;cluster_keycollison_fingerprint -->
<g id="edge2" class="edge">
<title>remove_special_characters&#45;&gt;cluster_keycollison_fingerprint</title>
<path fill="none" stroke="#000000" d="M302.1103,-525.9962C271.4976,-516.3165 243,-503.3244 243,-488.5 243,-488.5 243,-488.5 243,-386.5 243,-366.3972 282.223,-350.2262 324.3514,-338.6552"/>
<polygon fill="#000000" stroke="#000000" points="325.4631,-341.9814 334.2319,-336.0352 323.6689,-335.2153 325.4631,-341.9814"/>
<text text-anchor="middle" x="277.6343" y="-426.8" font-family="Helvetica,sans-Serif" font-size="14.00" fill="#000000">sponsor_t1</text>
</g>
<!-- remove_special_characters&#45;&gt;cluster_keycollison_fingerprint -->
<g id="edge3" class="edge">
<title>remove_special_characters&#45;&gt;cluster_keycollison_fingerprint</title>
<path fill="none" stroke="#000000" d="M361.344,-525.6235C354.5693,-515.3219 348,-501.8823 348,-488.5 348,-488.5 348,-488.5 348,-386.5 348,-367.6441 361.0282,-352.7592 376.4357,-341.749"/>
<polygon fill="#000000" stroke="#000000" points="378.7224,-344.4354 385.1725,-336.0302 374.8886,-338.5785 378.7224,-344.4354"/>
<text text-anchor="middle" x="374.855" y="-426.8" font-family="Helvetica,sans-Serif" font-size="14.00" fill="#000000">event_t1</text>
</g>
<!-- remove_special_characters&#45;&gt;cluster_keycollison_fingerprint -->
<g id="edge4" class="edge">
<title>remove_special_characters&#45;&gt;cluster_keycollison_fingerprint</title>
<path fill="none" stroke="#000000" d="M413.496,-525.9412C426.5529,-516.8729 438,-504.3912 438,-488.5 438,-488.5 438,-488.5 438,-386.5 438,-373.1466 435.7601,-358.5455 433.2158,-346.2674"/>
<polygon fill="#000000" stroke="#000000" points="436.5538,-345.157 430.9501,-336.1653 429.7234,-346.6889 436.5538,-345.157"/>
<text text-anchor="middle" x="466.8032" y="-426.8" font-family="Helvetica,sans-Serif" font-size="14.00" fill="#000000">venue_t1</text>
</g>
<!-- remove_special_characters&#45;&gt;cluster_keycollison_fingerprint -->
<g id="edge5" class="edge">
<title>remove_special_characters&#45;&gt;cluster_keycollison_fingerprint</title>
<path fill="none" stroke="#000000" d="M469.8964,-525.986C502.9351,-516.8941 532,-504.3823 532,-488.5 532,-488.5 532,-488.5 532,-386.5 532,-365.8814 517.6775,-351.1654 499.5619,-340.7985"/>
<polygon fill="#000000" stroke="#000000" points="500.8987,-337.5491 490.4102,-336.0518 497.6758,-343.763 500.8987,-337.5491"/>
<text text-anchor="middle" x="558.4653" y="-426.8" font-family="Helvetica,sans-Serif" font-size="14.00" fill="#000000">place_t1</text>
</g>
<!-- remove_special_characters&#45;&gt;cluster_keycollison_fingerprint -->
<g id="edge7" class="edge">
<title>remove_special_characters&#45;&gt;cluster_keycollison_fingerprint</title>
<path fill="none" stroke="#000000" d="M262.9228,-535.7043C166.0269,-527.0192 42,-511.4247 42,-488.5 42,-488.5 42,-488.5 42,-386.5 42,-361.5253 169.512,-342.5876 277.5788,-331.0224"/>
<polygon fill="#000000" stroke="#000000" points="278.061,-334.491 287.6385,-329.9609 277.3264,-327.5297 278.061,-334.491"/>
<text text-anchor="middle" x="79.3584" y="-426.8" font-family="Helvetica,sans-Serif" font-size="14.00" fill="#000000">occasion_t1</text>
</g>
<!-- export -->
<g id="node6" class="node">
<title>export</title>
<polygon fill="#ccffcc" stroke="#000000" points="602.4095,-136 535.5905,-136 535.5905,-100 602.4095,-100 602.4095,-136"/>
<text text-anchor="middle" x="569" y="-113.8" font-family="Courier,monospace" font-size="14.00" fill="#000000">export</text>
</g>
<!-- cluster_keycollison_fingerprint&#45;&gt;export -->
<g id="edge8" class="edge">
<title>cluster_keycollison_fingerprint&#45;&gt;export</title>
<path fill="none" stroke="#000000" d="M287.6406,-302.3752C217.098,-292.4499 146,-278.4821 146,-262.5 146,-262.5 146,-262.5 146,-173.5 146,-135.5544 417.0533,-122.7954 525.2077,-119.2147"/>
<polygon fill="#000000" stroke="#000000" points="525.5714,-122.705 535.4543,-118.8869 525.3475,-115.7085 525.5714,-122.705"/>
<text text-anchor="middle" x="173.2412" y="-213.8" font-family="Helvetica,sans-Serif" font-size="14.00" fill="#000000">name_t2</text>
</g>
<!-- cluster_keycollison_fingerprint&#45;&gt;export -->
<g id="edge9" class="edge">
<title>cluster_keycollison_fingerprint&#45;&gt;export</title>
<path fill="none" stroke="#000000" d="M298.4763,-299.9803C263.9859,-291.4801 236,-279.3816 236,-262.5 236,-262.5 236,-262.5 236,-173.5 236,-144.5007 435.0291,-127.1687 525.3481,-120.7964"/>
<polygon fill="#000000" stroke="#000000" points="525.8114,-124.2728 535.546,-120.091 525.3283,-117.2895 525.8114,-124.2728"/>
<text text-anchor="middle" x="270.6343" y="-213.8" font-family="Helvetica,sans-Serif" font-size="14.00" fill="#000000">sponsor_t2</text>
</g>
<!-- cluster_keycollison_fingerprint&#45;&gt;export -->
<g id="edge10" class="edge">
<title>cluster_keycollison_fingerprint&#45;&gt;export</title>
<path fill="none" stroke="#000000" d="M367.8945,-299.8877C352.9531,-291.4536 341,-279.4191 341,-262.5 341,-262.5 341,-262.5 341,-173.5 341,-135.9897 458.9753,-123.7263 525.1996,-119.7972"/>
<polygon fill="#000000" stroke="#000000" points="525.5663,-123.2824 535.3578,-119.2356 525.1798,-116.2931 525.5663,-123.2824"/>
<text text-anchor="middle" x="367.855" y="-213.8" font-family="Helvetica,sans-Serif" font-size="14.00" fill="#000000">event_t2</text>
</g>
<!-- cluster_keycollison_fingerprint&#45;&gt;export -->
<g id="edge11" class="edge">
<title>cluster_keycollison_fingerprint&#45;&gt;export</title>
<path fill="none" stroke="#000000" d="M428.5,-299.5375C429.75,-288.7583 431,-274.8833 431,-262.5 431,-262.5 431,-262.5 431,-173.5 431,-152.7889 485.1803,-136.2425 525.6436,-126.7731"/>
<polygon fill="#000000" stroke="#000000" points="526.614,-130.1421 535.594,-124.5199 525.068,-123.3149 526.614,-130.1421"/>
<text text-anchor="middle" x="459.8032" y="-213.8" font-family="Helvetica,sans-Serif" font-size="14.00" fill="#000000">venue_t2</text>
</g>
<!-- cluster_keycollison_fingerprint&#45;&gt;export -->
<g id="edge12" class="edge">
<title>cluster_keycollison_fingerprint&#45;&gt;export</title>
<path fill="none" stroke="#000000" d="M498.2092,-299.9272C513.4343,-291.6801 525,-279.7411 525,-262.5 525,-262.5 525,-262.5 525,-173.5 525,-162.2971 530.5731,-152.0386 537.7525,-143.4713"/>
<polygon fill="#000000" stroke="#000000" points="540.3831,-145.783 544.6835,-136.1002 535.2834,-140.9878 540.3831,-145.783"/>
<text text-anchor="middle" x="551.4653" y="-213.8" font-family="Helvetica,sans-Serif" font-size="14.00" fill="#000000">place_t2</text>
</g>
<!-- cluster_keycollison_fingerprint&#45;&gt;export -->
<g id="edge13" class="edge">
<title>cluster_keycollison_fingerprint&#45;&gt;export</title>
<path fill="none" stroke="#000000" d="M551.3987,-299.9882C585.8843,-291.4622 614,-279.3456 614,-262.5 614,-262.5 614,-262.5 614,-173.5 614,-162.2931 608.3956,-152.0841 601.1425,-143.5644"/>
<polygon fill="#000000" stroke="#000000" points="603.573,-141.0418 594.1314,-136.2348 598.5145,-145.8805 603.573,-141.0418"/>
<text text-anchor="middle" x="686.7651" y="-213.8" font-family="Helvetica,sans-Serif" font-size="14.00" fill="#000000">physical_description_t2</text>
</g>
<!-- cluster_keycollison_fingerprint&#45;&gt;export -->
<g id="edge14" class="edge">
<title>cluster_keycollison_fingerprint&#45;&gt;export</title>
<path fill="none" stroke="#000000" d="M564.3005,-300.3966C669.3937,-286.5373 796,-268.5794 796,-262.5 796,-262.5 796,-262.5 796,-173.5 796,-136.145 678.5422,-123.8135 612.6083,-119.8339"/>
<polygon fill="#000000" stroke="#000000" points="612.6756,-116.3323 602.4946,-119.2644 612.282,-123.3212 612.6756,-116.3323"/>
<text text-anchor="middle" x="833.3584" y="-213.8" font-family="Helvetica,sans-Serif" font-size="14.00" fill="#000000">occasion_t2</text>
</g>
<!-- cluster_keycollison_fingerprint&#45;&gt;export -->
<g id="edge15" class="edge">
<title>cluster_keycollison_fingerprint&#45;&gt;export</title>
<path fill="none" stroke="#000000" d="M564.4908,-301.0027C567.352,-300.6642 570.191,-300.3297 573,-300 610.0897,-295.6472 907,-299.8443 907,-262.5 907,-262.5 907,-262.5 907,-173.5 907,-143.9755 703.587,-126.8586 612.363,-120.6667"/>
<polygon fill="#000000" stroke="#000000" points="612.5441,-117.1711 602.3338,-119.9994 612.0793,-124.1557 612.5441,-117.1711"/>
<text text-anchor="middle" x="933.855" y="-213.8" font-family="Helvetica,sans-Serif" font-size="14.00" fill="#000000">notes_t1</text>
</g>
<!-- cluster_keycollison_fingerprint&#45;&gt;export -->
<g id="edge17" class="edge">
<title>cluster_keycollison_fingerprint&#45;&gt;export</title>
<path fill="none" stroke="#000000" d="M287.6385,-310.6557C177.5977,-302.8874 42,-288.1176 42,-262.5 42,-262.5 42,-262.5 42,-173.5 42,-149.2556 399.4108,-127.3031 525.5566,-120.3101"/>
<polygon fill="#000000" stroke="#000000" points="525.8412,-123.7998 535.634,-119.7561 525.4569,-116.8104 525.8412,-123.7998"/>
<text text-anchor="middle" x="75.8584" y="-213.8" font-family="Helvetica,sans-Serif" font-size="14.00" fill="#000000">location_t1</text>
</g>
<!-- copy_and_extract_dimension -->
<g id="node3" class="node">
<title>copy_and_extract_dimension</title>
<polygon fill="#ccffcc" stroke="#000000" points="816.436,-336 581.564,-336 581.564,-300 816.436,-300 816.436,-336"/>
<text text-anchor="middle" x="699" y="-313.8" font-family="Courier,monospace" font-size="14.00" fill="#000000">copy_and_extract_dimension</text>
</g>
<!-- copy_and_extract_dimension&#45;&gt;export -->
<g id="edge18" class="edge">
<title>copy_and_extract_dimension&#45;&gt;export</title>
<path fill="none" stroke="#000000" d="M809.5407,-299.9426C894.3485,-285.7008 997,-267.4419 997,-262.5 997,-262.5 997,-262.5 997,-173.5 997,-135.0228 721.4461,-122.5606 612.5375,-119.1377"/>
<polygon fill="#000000" stroke="#000000" points="612.3298,-115.6299 602.2283,-118.8252 612.1176,-122.6267 612.3298,-115.6299"/>
<text text-anchor="middle" x="1028.9067" y="-213.8" font-family="Helvetica,sans-Serif" font-size="14.00" fill="#000000">dimension</text>
</g>
<!-- remove_dimension -->
<g id="node4" class="node">
<title>remove_dimension</title>
<polygon fill="#ccffcc" stroke="#000000" points="703.4225,-562 552.5775,-562 552.5775,-526 703.4225,-526 703.4225,-562"/>
<text text-anchor="middle" x="628" y="-539.8" font-family="Courier,monospace" font-size="14.00" fill="#000000">remove_dimension</text>
</g>
<!-- remove_dimension&#45;&gt;cluster_keycollison_fingerprint -->
<g id="edge6" class="edge">
<title>remove_dimension&#45;&gt;cluster_keycollison_fingerprint</title>
<path fill="none" stroke="#000000" d="M624.5,-525.5733C622.75,-514.806 621,-500.931 621,-488.5 621,-488.5 621,-488.5 621,-386.5 621,-365.7756 581.2972,-349.807 537.7214,-338.522"/>
<polygon fill="#000000" stroke="#000000" points="538.3334,-335.0674 527.7834,-336.0419 536.6384,-341.8591 538.3334,-335.0674"/>
<text text-anchor="middle" x="693.7651" y="-426.8" font-family="Helvetica,sans-Serif" font-size="14.00" fill="#000000">physical_description_t1</text>
</g>
<!-- filter_outside_year_range_1851_2012 -->
<g id="node5" class="node">
<title>filter_outside_year_range_1851_2012</title>
<polygon fill="#ccffcc" stroke="#000000" points="1144.0479,-336 833.9521,-336 833.9521,-300 1144.0479,-300 1144.0479,-336"/>
<text text-anchor="middle" x="989" y="-313.8" font-family="Courier,monospace" font-size="14.00" fill="#000000">filter_outside_year_range_1851_2012</text>
</g>
<!-- filter_outside_year_range_1851_2012&#45;&gt;export -->
<g id="edge16" class="edge">
<title>filter_outside_year_range_1851_2012&#45;&gt;export</title>
<path fill="none" stroke="#000000" d="M1070.8562,-299.8926C1085.9192,-291.6929 1097,-279.7863 1097,-262.5 1097,-262.5 1097,-262.5 1097,-173.5 1097,-149.2101 738.911,-127.287 612.5259,-120.3058"/>
<polygon fill="#000000" stroke="#000000" points="612.6058,-116.8051 602.4293,-119.7528 612.2229,-123.7946 612.6058,-116.8051"/>
<text text-anchor="middle" x="1120.355" y="-213.8" font-family="Helvetica,sans-Serif" font-size="14.00" fill="#000000">date_t1</text>
</g>
<!-- Menu.csv.tsv_output_port -->
<g id="node18" class="node">
<title>Menu.csv.tsv_output_port</title>
<ellipse fill="#ffffff" stroke="#000000" cx="569" cy="-31" rx="7" ry="7"/>
</g>
<!-- export&#45;&gt;Menu.csv.tsv_output_port -->
<g id="edge31" class="edge">
<title>export&#45;&gt;Menu.csv.tsv_output_port</title>
<path fill="none" stroke="#000000" d="M569,-99.9735C569,-84.8929 569,-63.5054 569,-48.5575"/>
<polygon fill="#000000" stroke="#000000" points="572.5001,-48.1936 569,-38.1936 565.5001,-48.1936 572.5001,-48.1936"/>
<text text-anchor="middle" x="609.3286" y="-64.8" font-family="Helvetica,sans-Serif" font-size="14.00" fill="#000000">Menu.csv.tsv</text>
</g>
<!-- name_input_port -->
<g id="node7" class="node">
<title>name_input_port</title>
<ellipse fill="#ffffff" stroke="#000000" cx="590" cy="-631" rx="7" ry="7"/>
</g>
<!-- name_input_port&#45;&gt;remove_special_characters -->
<g id="edge19" class="edge">
<title>name_input_port&#45;&gt;remove_special_characters</title>
<path fill="none" stroke="#000000" d="M586.9484,-624.5619C581.8437,-614.5528 570.578,-595.4325 555,-586 542.4274,-578.3873 515.7371,-570.8167 486.713,-564.2429"/>
<polygon fill="#000000" stroke="#000000" points="487.3171,-560.7921 476.7976,-562.0532 485.8076,-567.6274 487.3171,-560.7921"/>
<text text-anchor="middle" x="587.5103" y="-588.8" font-family="Helvetica,sans-Serif" font-size="14.00" fill="#000000">name</text>
</g>
<!-- sponsor_input_port -->
<g id="node8" class="node">
<title>sponsor_input_port</title>
<ellipse fill="#ffffff" stroke="#000000" cx="462" cy="-631" rx="7" ry="7"/>
</g>
<!-- sponsor_input_port&#45;&gt;remove_special_characters -->
<g id="edge20" class="edge">
<title>sponsor_input_port&#45;&gt;remove_special_characters</title>
<path fill="none" stroke="#000000" d="M459.2026,-624.0709C456.6301,-618.6858 452.2607,-611.5538 446,-608 423.7589,-595.3752 348.6374,-618.7018 331.1934,-600 322.0848,-590.2346 328.4725,-578.8227 338.9709,-568.8579"/>
<polygon fill="#000000" stroke="#000000" points="341.4116,-571.3766 346.7559,-562.2283 336.8732,-566.0471 341.4116,-571.3766"/>
<text text-anchor="middle" x="355.9033" y="-588.8" font-family="Helvetica,sans-Serif" font-size="14.00" fill="#000000">sponsor</text>
</g>
<!-- event_input_port -->
<g id="node9" class="node">
<title>event_input_port</title>
<ellipse fill="#ffffff" stroke="#000000" cx="494" cy="-631" rx="7" ry="7"/>
</g>
<!-- event_input_port&#45;&gt;remove_special_characters -->
<g id="edge21" class="edge">
<title>event_input_port&#45;&gt;remove_special_characters</title>
<path fill="none" stroke="#000000" d="M491.1661,-624.1337C488.5726,-618.785 484.1925,-611.6714 478,-608 449.4503,-591.0736 430.9749,-618.9868 403.752,-600 394.175,-593.3205 387.7457,-582.3616 383.5102,-571.9012"/>
<polygon fill="#000000" stroke="#000000" points="386.7108,-570.4525 380.0902,-562.1809 380.1076,-572.7757 386.7108,-570.4525"/>
<text text-anchor="middle" x="420.124" y="-588.8" font-family="Helvetica,sans-Serif" font-size="14.00" fill="#000000">event</text>
</g>
<!-- venue_input_port -->
<g id="node10" class="node">
<title>venue_input_port</title>
<ellipse fill="#ffffff" stroke="#000000" cx="526" cy="-631" rx="7" ry="7"/>
</g>
<!-- venue_input_port&#45;&gt;remove_special_characters -->
<g id="edge22" class="edge">
<title>venue_input_port&#45;&gt;remove_special_characters</title>
<path fill="none" stroke="#000000" d="M523.112,-624.2223C520.487,-618.925 516.0911,-611.8373 510,-608 491.2763,-596.2042 481.4685,-608.0509 460.8555,-600 458.007,-598.8875 433.3695,-582.5645 411.3716,-567.8274"/>
<polygon fill="#000000" stroke="#000000" points="413.0622,-564.7469 402.808,-562.0818 409.1621,-570.5598 413.0622,-564.7469"/>
<text text-anchor="middle" x="479.0723" y="-588.8" font-family="Helvetica,sans-Serif" font-size="14.00" fill="#000000">venue</text>
</g>
<!-- place_input_port -->
<g id="node11" class="node">
<title>place_input_port</title>
<ellipse fill="#ffffff" stroke="#000000" cx="558" cy="-631" rx="7" ry="7"/>
</g>
<!-- place_input_port&#45;&gt;remove_special_characters -->
<g id="edge23" class="edge">
<title>place_input_port&#45;&gt;remove_special_characters</title>
<path fill="none" stroke="#000000" d="M554.8779,-624.5537C552.1171,-619.4487 547.6526,-612.458 542,-608 534.3307,-601.9515 530.2647,-604.3736 521.5313,-600 510.9897,-594.7209 509.654,-591.0484 499,-586 482.6551,-578.2549 464.487,-571.2423 447.2399,-565.2629"/>
<polygon fill="#000000" stroke="#000000" points="448.3647,-561.9486 437.7704,-562.0492 446.1151,-568.5773 448.3647,-561.9486"/>
<text text-anchor="middle" x="537.7344" y="-588.8" font-family="Helvetica,sans-Serif" font-size="14.00" fill="#000000">place</text>
</g>
<!-- physical_description_input_port -->
<g id="node12" class="node">
<title>physical_description_input_port</title>
<ellipse fill="#ffffff" stroke="#000000" cx="622" cy="-631" rx="7" ry="7"/>
</g>
<!-- physical_description_input_port&#45;&gt;copy_and_extract_dimension -->
<g id="edge24" class="edge">
<title>physical_description_input_port&#45;&gt;copy_and_extract_dimension</title>
<path fill="none" stroke="#000000" d="M624.7962,-624.0687C627.3679,-618.6823 631.737,-611.5497 638,-608 660.6723,-595.1499 730.4791,-608.8252 755,-600 795.1545,-585.5483 833,-586.6759 833,-544 833,-544 833,-544 833,-386.5 833,-365.394 819.6572,-350.7874 801.3924,-340.6799"/>
<polygon fill="#000000" stroke="#000000" points="802.583,-337.3642 792.0675,-336.0706 799.4812,-343.6395 802.583,-337.3642"/>
<text text-anchor="middle" x="896.0342" y="-458.8" font-family="Helvetica,sans-Serif" font-size="14.00" fill="#000000">physical_description</text>
</g>
<!-- physical_description_input_port&#45;&gt;remove_dimension -->
<g id="edge25" class="edge">
<title>physical_description_input_port&#45;&gt;remove_dimension</title>
<path fill="none" stroke="#000000" d="M622.491,-623.8804C623.2631,-612.6854 624.8024,-590.3652 626.0581,-572.1579"/>
<polygon fill="#000000" stroke="#000000" points="629.5603,-572.2452 626.7567,-562.0281 622.5769,-571.7636 629.5603,-572.2452"/>
<text text-anchor="middle" x="688.0342" y="-588.8" font-family="Helvetica,sans-Serif" font-size="14.00" fill="#000000">physical_description</text>
</g>
<!-- occasion_input_port -->
<g id="node13" class="node">
<title>occasion_input_port</title>
<ellipse fill="#ffffff" stroke="#000000" cx="430" cy="-631" rx="7" ry="7"/>
</g>
<!-- occasion_input_port&#45;&gt;remove_special_characters -->
<g id="edge26" class="edge">
<title>occasion_input_port&#45;&gt;remove_special_characters</title>
<path fill="none" stroke="#000000" d="M422.6311,-630.9097C391.969,-630.3644 275.0535,-626.5485 252.7451,-600 240.3843,-585.2898 248.4869,-574.2639 265.2441,-566.0694"/>
<polygon fill="#000000" stroke="#000000" points="266.8982,-569.1695 274.7334,-562.0378 264.161,-562.7269 266.8982,-569.1695"/>
<text text-anchor="middle" x="279.6274" y="-588.8" font-family="Helvetica,sans-Serif" font-size="14.00" fill="#000000">occasion</text>
</g>
<!-- notes_input_port -->
<g id="node14" class="node">
<title>notes_input_port</title>
<ellipse fill="#ffffff" stroke="#000000" cx="654" cy="-631" rx="7" ry="7"/>
</g>
<!-- notes_input_port&#45;&gt;cluster_keycollison_fingerprint -->
<g id="edge27" class="edge">
<title>notes_input_port&#45;&gt;cluster_keycollison_fingerprint</title>
<path fill="none" stroke="#000000" d="M656.8207,-624.1113C659.4066,-618.7497 663.7829,-611.6295 670,-608 686.3846,-598.4347 741.5537,-613.3846 755,-600 768.9168,-586.1471 781.9094,-440.3268 771,-424 745.2054,-385.396 633.6627,-355.9651 544.2926,-338.0235"/>
<polygon fill="#000000" stroke="#000000" points="544.8302,-334.5621 534.341,-336.0543 543.4714,-341.429 544.8302,-334.5621"/>
<text text-anchor="middle" x="792.124" y="-458.8" font-family="Helvetica,sans-Serif" font-size="14.00" fill="#000000">notes</text>
</g>
<!-- date_input_port -->
<g id="node15" class="node">
<title>date_input_port</title>
<ellipse fill="#ffffff" stroke="#000000" cx="718" cy="-631" rx="7" ry="7"/>
</g>
<!-- date_input_port&#45;&gt;filter_outside_year_range_1851_2012 -->
<g id="edge28" class="edge">
<title>date_input_port&#45;&gt;filter_outside_year_range_1851_2012</title>
<path fill="none" stroke="#000000" d="M720.5758,-624.4733C723.1072,-619.0242 727.5357,-611.5887 734,-608 749.3686,-599.4681 874.5785,-602.3409 892,-600 937.1019,-593.9396 949.4504,-594.1383 992,-578 1021.0207,-566.9929 1053,-575.038 1053,-544 1053,-544 1053,-544 1053,-386.5 1053,-368.8133 1041.4672,-353.7989 1028.193,-342.3752"/>
<polygon fill="#000000" stroke="#000000" points="1030.2587,-339.5463 1020.2501,-336.0709 1025.9069,-345.0292 1030.2587,-339.5463"/>
<text text-anchor="middle" x="1066.624" y="-458.8" font-family="Helvetica,sans-Serif" font-size="14.00" fill="#000000">date</text>
</g>
<!-- location_input_port -->
<g id="node16" class="node">
<title>location_input_port</title>
<ellipse fill="#ffffff" stroke="#000000" cx="686" cy="-631" rx="7" ry="7"/>
</g>
<!-- location_input_port&#45;&gt;cluster_keycollison_fingerprint -->
<g id="edge29" class="edge">
<title>location_input_port&#45;&gt;cluster_keycollison_fingerprint</title>
<path fill="none" stroke="#000000" d="M688.8167,-624.1043C691.4002,-618.7387 695.7753,-611.6165 702,-608 719.17,-598.0245 771.4902,-603.7 791,-600 877.9131,-583.517 982,-632.4623 982,-544 982,-544 982,-544 982,-386.5 982,-386.1788 739.4484,-356.3992 574.7498,-336.2151"/>
<polygon fill="#000000" stroke="#000000" points="574.8617,-332.7027 564.5102,-334.9603 574.0102,-339.6508 574.8617,-332.7027"/>
<text text-anchor="middle" x="1006.1274" y="-458.8" font-family="Helvetica,sans-Serif" font-size="14.00" fill="#000000">location</text>
</g>
<!-- pass_thru_cols_input_port -->
<g id="node17" class="node">
<title>pass_thru_cols_input_port</title>
<ellipse fill="#ffffff" stroke="#000000" cx="750" cy="-631" rx="7" ry="7"/>
</g>
<!-- pass_thru_cols_input_port&#45;&gt;export -->
<g id="edge30" class="edge">
<title>pass_thru_cols_input_port&#45;&gt;export</title>
<path fill="none" stroke="#000000" d="M756.9725,-630.3324C811.8406,-624.9888 1172,-588.2282 1172,-544 1172,-544 1172,-544 1172,-173.5 1172,-145.3874 750.9171,-125.5031 612.5083,-119.7265"/>
<polygon fill="#000000" stroke="#000000" points="612.4148,-116.2197 602.2788,-119.3038 612.1258,-123.2138 612.4148,-116.2197"/>
<text text-anchor="middle" x="1219.0825" y="-356.8" font-family="Helvetica,sans-Serif" font-size="14.00" fill="#000000">pass_thru_cols</text>
</g>
</g>
</svg>
