<?xml version="1.0" encoding="UTF-8" standalone="no"?>
<!DOCTYPE svg PUBLIC "-//W3C//DTD SVG 1.1//EN"
 "http://www.w3.org/Graphics/SVG/1.1/DTD/svg11.dtd">
<!-- Generated by graphviz version 2.40.1 (20161225.0304)
 -->
<!-- Title: Workflow Pages: 1 -->
<svg width="430pt" height="1283pt"
 viewBox="0.00 0.00 430.17 1283.00" xmlns="http://www.w3.org/2000/svg" xmlns:xlink="http://www.w3.org/1999/xlink">
<g id="graph0" class="graph" transform="scale(1 1) rotate(0) translate(4 1279)">
<title>Workflow</title>
<polygon fill="#ffffff" stroke="transparent" points="-4,4 -4,-1279 426.165,-1279 426.165,4 -4,4"/>
<text text-anchor="middle" x="211.0825" y="-1256.6" font-family="Courier,monospace" font-size="18.00" fill="#000000">OpenRefine_Dish</text>
<g id="clust1" class="cluster">
<title>cluster_workflow_box_outer</title>
<polygon fill="none" stroke="#000000" stroke-width="2" points="8,-84 8,-1165 316,-1165 316,-84 8,-84"/>
</g>
<g id="clust2" class="cluster">
<title>cluster_workflow_box_inner</title>
<polygon fill="none" stroke="#ffffff" stroke-width="2" points="16,-92 16,-1157 308,-1157 308,-92 16,-92"/>
</g>
<g id="clust3" class="cluster">
<title>cluster_input_ports_group_outer</title>
<polygon fill="none" stroke="#ffffff" points="234,-1195 234,-1241 312,-1241 312,-1195 234,-1195"/>
</g>
<g id="clust4" class="cluster">
<title>cluster_input_ports_group_inner</title>
<polygon fill="none" stroke="#ffffff" points="242,-1203 242,-1233 304,-1233 304,-1203 242,-1203"/>
</g>
<g id="clust5" class="cluster">
<title>cluster_output_ports_group_outer</title>
<polygon fill="none" stroke="#ffffff" points="217,-8 217,-54 263,-54 263,-8 217,-8"/>
</g>
<g id="clust6" class="cluster">
<title>cluster_output_ports_group_inner</title>
<polygon fill="none" stroke="#ffffff" points="225,-16 225,-46 255,-46 255,-16 225,-16"/>
</g>
<!-- value.trim() -->
<g id="node1" class="node">
<title>value.trim()</title>
<polygon fill="#ccffcc" stroke="#000000" points="280.3166,-1149 163.6834,-1149 163.6834,-1113 280.3166,-1113 280.3166,-1149"/>
<text text-anchor="middle" x="222" y="-1126.8" font-family="Courier,monospace" font-size="14.00" fill="#000000">value.trim()</text>
</g>
<!-- value.replace(/\s+/,&#39;&#39;) -->
<g id="node2" class="node">
<title>value.replace(/\s+/,&#39;&#39;)</title>
<polygon fill="#ccffcc" stroke="#000000" points="281.3301,-949 80.6699,-949 80.6699,-913 281.3301,-913 281.3301,-949"/>
<text text-anchor="middle" x="181" y="-926.8" font-family="Courier,monospace" font-size="14.00" fill="#000000">value.replace(/s+/,&#39;&#39;)</text>
</g>
<!-- value.trim()&#45;&gt;value.replace(/\s+/,&#39;&#39;) -->
<g id="edge1" class="edge">
<title>value.trim()&#45;&gt;value.replace(/\s+/,&#39;&#39;)</title>
<path fill="none" stroke="#000000" d="M211.377,-1112.8915C206.1683,-1102.3449 201,-1088.5837 201,-1075.5 201,-1075.5 201,-1075.5 201,-986.5 201,-977.0494 198.4016,-967.2011 195.078,-958.4696"/>
<polygon fill="#000000" stroke="#000000" points="198.2549,-956.9964 191.1172,-949.1667 191.8143,-959.7386 198.2549,-956.9964"/>
<text text-anchor="middle" x="228.2412" y="-1026.8" font-family="Helvetica,sans-Serif" font-size="14.00" fill="#000000">name_t1</text>
</g>
<!-- value.toLowercase() -->
<g id="node3" class="node">
<title>value.toLowercase()</title>
<polygon fill="#ccffcc" stroke="#000000" points="262.6264,-749 87.3736,-749 87.3736,-713 262.6264,-713 262.6264,-749"/>
<text text-anchor="middle" x="175" y="-726.8" font-family="Courier,monospace" font-size="14.00" fill="#000000">value.toLowercase()</text>
</g>
<!-- value.replace(/\s+/,&#39;&#39;)&#45;&gt;value.toLowercase() -->
<g id="edge2" class="edge">
<title>value.replace(/\s+/,&#39;&#39;)&#45;&gt;value.toLowercase()</title>
<path fill="none" stroke="#000000" d="M180.5,-912.5015C180.25,-901.7103 180,-887.8353 180,-875.5 180,-875.5 180,-875.5 180,-786.5 180,-777.6963 179.3682,-768.1386 178.5538,-759.4753"/>
<polygon fill="#000000" stroke="#000000" points="182.0275,-759.0412 177.5,-749.4625 175.066,-759.774 182.0275,-759.0412"/>
<text text-anchor="middle" x="207.2412" y="-826.8" font-family="Helvetica,sans-Serif" font-size="14.00" fill="#000000">name_t2</text>
</g>
<!-- value.replace(value, -->
<g id="node4" class="node">
<title>value.replace(value,</title>
<polygon fill="#ccffcc" stroke="#000000" points="265.0273,-536 80.9727,-536 80.9727,-500 265.0273,-500 265.0273,-536"/>
<text text-anchor="middle" x="173" y="-513.8" font-family="Courier,monospace" font-size="14.00" fill="#000000">value.replace(value,</text>
</g>
<!-- value.toLowercase()&#45;&gt;value.replace(value, -->
<g id="edge3" class="edge">
<title>value.toLowercase()&#45;&gt;value.replace(value,</title>
<path fill="none" stroke="#000000" d="M174.5,-712.5015C174.25,-701.7103 174,-687.8353 174,-675.5 174,-675.5 174,-675.5 174,-573.5 174,-564.7303 173.8736,-555.1825 173.7108,-546.5178"/>
<polygon fill="#000000" stroke="#000000" points="177.2096,-546.4226 173.5,-536.4985 170.2112,-546.5699 177.2096,-546.4226"/>
<text text-anchor="middle" x="201.2412" y="-613.8" font-family="Helvetica,sans-Serif" font-size="14.00" fill="#000000">name_t3</text>
</g>
<!-- cluster_keycollison_fingerprint -->
<g id="node5" class="node">
<title>cluster_keycollison_fingerprint</title>
<polygon fill="#ccffcc" stroke="#000000" points="300.4427,-336 23.5573,-336 23.5573,-300 300.4427,-300 300.4427,-336"/>
<text text-anchor="middle" x="162" y="-313.8" font-family="Courier,monospace" font-size="14.00" fill="#000000">cluster_keycollison_fingerprint</text>
</g>
<!-- value.replace(value,&#45;&gt;cluster_keycollison_fingerprint -->
<g id="edge4" class="edge">
<title>value.replace(value,&#45;&gt;cluster_keycollison_fingerprint</title>
<path fill="none" stroke="#000000" d="M168.5,-499.6208C166.25,-488.8694 164,-474.9944 164,-462.5 164,-462.5 164,-462.5 164,-373.5 164,-364.7261 163.7473,-355.177 163.4215,-346.5125"/>
<polygon fill="#000000" stroke="#000000" points="166.9174,-346.338 163,-336.494 159.9236,-346.6323 166.9174,-346.338"/>
<text text-anchor="middle" x="191.2412" y="-413.8" font-family="Helvetica,sans-Serif" font-size="14.00" fill="#000000">name_t4</text>
</g>
<!-- export -->
<g id="node6" class="node">
<title>export</title>
<polygon fill="#ccffcc" stroke="#000000" points="273.4095,-136 206.5905,-136 206.5905,-100 273.4095,-100 273.4095,-136"/>
<text text-anchor="middle" x="240" y="-113.8" font-family="Courier,monospace" font-size="14.00" fill="#000000">export</text>
</g>
<!-- cluster_keycollison_fingerprint&#45;&gt;export -->
<g id="edge5" class="edge">
<title>cluster_keycollison_fingerprint&#45;&gt;export</title>
<path fill="none" stroke="#000000" d="M175.3047,-299.9714C181.7015,-289.5611 188,-275.9068 188,-262.5 188,-262.5 188,-262.5 188,-173.5 188,-161.7558 194.2773,-151.4727 202.4698,-143.0531"/>
<polygon fill="#000000" stroke="#000000" points="205.0181,-145.4662 210.0527,-136.1439 200.3036,-140.2919 205.0181,-145.4662"/>
<text text-anchor="middle" x="215.2412" y="-213.8" font-family="Helvetica,sans-Serif" font-size="14.00" fill="#000000">name_t5</text>
</g>
<!-- Dish.csv.tsv_output_port -->
<g id="node9" class="node">
<title>Dish.csv.tsv_output_port</title>
<ellipse fill="#ffffff" stroke="#000000" cx="240" cy="-31" rx="7" ry="7"/>
</g>
<!-- export&#45;&gt;Dish.csv.tsv_output_port -->
<g id="edge8" class="edge">
<title>export&#45;&gt;Dish.csv.tsv_output_port</title>
<path fill="none" stroke="#000000" d="M240,-99.9735C240,-84.8929 240,-63.5054 240,-48.5575"/>
<polygon fill="#000000" stroke="#000000" points="243.5001,-48.1936 240,-38.1936 236.5001,-48.1936 243.5001,-48.1936"/>
<text text-anchor="middle" x="276.8218" y="-64.8" font-family="Helvetica,sans-Serif" font-size="14.00" fill="#000000">Dish.csv.tsv</text>
</g>
<!-- name_input_port -->
<g id="node7" class="node">
<title>name_input_port</title>
<ellipse fill="#ffffff" stroke="#000000" cx="257" cy="-1218" rx="7" ry="7"/>
</g>
<!-- name_input_port&#45;&gt;value.trim() -->
<g id="edge6" class="edge">
<title>name_input_port&#45;&gt;value.trim()</title>
<path fill="none" stroke="#000000" d="M254.3693,-1211.4609C249.9223,-1200.4068 240.6726,-1177.4147 233.1954,-1158.8285"/>
<polygon fill="#000000" stroke="#000000" points="236.3533,-1157.3003 229.3738,-1149.3292 229.8591,-1159.9129 236.3533,-1157.3003"/>
<text text-anchor="middle" x="260.5103" y="-1175.8" font-family="Helvetica,sans-Serif" font-size="14.00" fill="#000000">name</text>
</g>
<!-- pass_thru_cols_input_port -->
<g id="node8" class="node">
<title>pass_thru_cols_input_port</title>
<ellipse fill="#ffffff" stroke="#000000" cx="289" cy="-1218" rx="7" ry="7"/>
</g>
<!-- pass_thru_cols_input_port&#45;&gt;export -->
<g id="edge7" class="edge">
<title>pass_thru_cols_input_port&#45;&gt;export</title>
<path fill="none" stroke="#000000" d="M293.4738,-1212.4831C303.7178,-1199.2736 328,-1164.4357 328,-1131 328,-1131 328,-1131 328,-173.5 328,-150.0562 305.3794,-136.1182 283.0756,-128.0733"/>
<polygon fill="#000000" stroke="#000000" points="283.8614,-124.6483 273.269,-124.8772 281.6923,-131.3037 283.8614,-124.6483"/>
<text text-anchor="middle" x="375.0825" y="-645.8" font-family="Helvetica,sans-Serif" font-size="14.00" fill="#000000">pass_thru_cols</text>
</g>
</g>
</svg>
